# xmcd
#
# Track frame offsets:
#	150
#	17135
#	31124
#	43311
#	58684
#	72627
#	91383
#	107269
#	124276
#	137538
#	153723
#	165356
#	181107
#	197092
#
# Disc length: 2766 seconds
# Revision: 0
# Processed by: cddbd v1.5.2PL0 Copyright (c) Steve Scherf et al.
# Submitted via: dBpowerAMP V12.0
#
DISCID=bb0acc0e
DTITLE=Todalo Shakers - Tickled, Too 
DYEAR=2011
DGENRE=Old-Time
TTITLE0=Don't Be No Fool/Salt Lake City Blues
TTITLE1=My Baby's Got Something
TTITLE2=Podunk Toddle
TTITLE3=Mama Dont Give All The Lard Away
TTITLE4=Georgia Crawl
TTITLE5=1931 Depression Blues
TTITLE6=Baby How Can It Be
TTITLE7=My Walking Stick
TTITLE8=It Is So Good
TTITLE9=East Texas Drag
TTITLE10=Memphis Blues
TTITLE11=Banks Of The Kaney
TTITLE12=Sweet Lovin Old Soul
TTITLE13=Im Satisfied
EXTD=
EXTT0=
EXTT1=
EXTT2=
EXTT3=
EXTT4=
EXTT5=
EXTT6=
EXTT7=
EXTT8=
EXTT9=
EXTT10=
EXTT11=
EXTT12=
EXTT13=
PLAYORDER=
